<svg width="48" height="48" viewBox="0 0 48 48" fill="none" xmlns="http://www.w3.org/2000/svg">
<g clip-path="url(#clip0_7_374)">
<path fill-rule="evenodd" clip-rule="evenodd" d="M24.0199 0.000488281C10.7375 0.000488281 0 10.8171 0 24.1988C0 34.8955 6.87988 43.95 16.4241 47.1547C17.6174 47.3956 18.0545 46.634 18.0545 45.9934C18.0545 45.4324 18.0151 43.5095 18.0151 41.506C11.3334 42.9485 9.94198 38.6214 9.94198 38.6214C8.86818 35.8169 7.27715 35.0961 7.27715 35.0961C5.09022 33.6137 7.43645 33.6137 7.43645 33.6137C9.86233 33.774 11.1353 36.0976 11.1353 36.0976C13.2824 39.7832 16.7422 38.7418 18.1341 38.1007C18.3328 36.5382 18.9695 35.4565 19.6455 34.8557C14.3163 34.2947 8.70937 32.2115 8.70937 22.9166C8.70937 20.2724 9.66321 18.109 11.1746 16.4266C10.9361 15.8257 10.1008 13.3414 11.4135 10.0162C11.4135 10.0162 13.4417 9.37509 18.0146 12.5001C19.9725 11.9704 21.9916 11.701 24.0199 11.6987C26.048 11.6987 28.1154 11.9794 30.0246 12.5001C34.5981 9.37509 36.6262 10.0162 36.6262 10.0162C37.9389 13.3414 37.1031 15.8257 36.8646 16.4266C38.4158 18.109 39.3303 20.2724 39.3303 22.9166C39.3303 32.2115 33.7234 34.2544 28.3544 34.8557C29.2296 35.6168 29.9848 37.0588 29.9848 39.3426C29.9848 42.5876 29.9454 45.192 29.9454 45.9929C29.9454 46.634 30.383 47.3956 31.5758 47.1552C41.12 43.9495 47.9999 34.8955 47.9999 24.1988C48.0392 10.8171 37.2624 0.000488281 24.0199 0.000488281Z" fill="white"/>
</g>
<defs>
<clipPath id="clip0_7_374">
<rect width="48" height="48" fill="white" transform="translate(0 0.000488281)"/>
</clipPath>
</defs>
</svg>
